G04 Layer_Color=65535*
%FSLAX25Y25*%
%MOIN*%
G70*
G01*
G75*
%ADD10C,0.01000*%
%ADD20C,0.02362*%
%ADD21C,0.00984*%
%ADD22C,0.00787*%
%ADD23C,0.00500*%
D10*
X152500Y149500D02*
G03*
X157500Y149500I2500J0D01*
G01*
X130000D02*
X152500D01*
X157500D02*
X180000D01*
Y9500D02*
Y149500D01*
X130000Y9500D02*
X180000D01*
X130000D02*
Y149500D01*
X142999Y13000D02*
X139000D01*
X142999Y16999D01*
Y17998D01*
X141999Y18998D01*
X140000D01*
X139000Y17998D01*
X144998Y18998D02*
X148997D01*
Y17998D01*
X144998Y14000D01*
Y13000D01*
X154995Y18998D02*
X150996D01*
Y15999D01*
X152996Y16999D01*
X153995D01*
X154995Y15999D01*
Y14000D01*
X153995Y13000D01*
X151996D01*
X150996Y14000D01*
X156994Y13000D02*
X158993D01*
X157994D01*
Y18998D01*
X156994Y17998D01*
X165991Y13000D02*
X161993D01*
X165991Y16999D01*
Y17998D01*
X164992Y18998D01*
X162992D01*
X161993Y17998D01*
X244002Y23500D02*
Y27499D01*
X245002D01*
X249000Y23500D01*
X250000D01*
Y32497D02*
X244002D01*
X247001Y29498D01*
Y33497D01*
X245002Y35496D02*
X244002Y36496D01*
Y38495D01*
X245002Y39495D01*
X249000D01*
X250000Y38495D01*
Y36496D01*
X249000Y35496D01*
X245002D01*
Y41494D02*
X244002Y42494D01*
Y44493D01*
X245002Y45493D01*
X246001D01*
X247001Y44493D01*
X248001Y45493D01*
X249000D01*
X250000Y44493D01*
Y42494D01*
X249000Y41494D01*
X248001D01*
X247001Y42494D01*
X246001Y41494D01*
X245002D01*
X247001Y42494D02*
Y44493D01*
X190000Y4000D02*
Y8723D01*
X191574Y7149D01*
X193149Y8723D01*
Y4000D01*
X197084Y8723D02*
X195510D01*
X194723Y7936D01*
Y4787D01*
X195510Y4000D01*
X197084D01*
X197871Y4787D01*
Y7936D01*
X197084Y8723D01*
X201807D02*
X200233D01*
X199446Y7936D01*
Y4787D01*
X200233Y4000D01*
X201807D01*
X202594Y4787D01*
Y7936D01*
X201807Y8723D01*
X204169Y4000D02*
Y8723D01*
X207317Y4000D01*
Y8723D01*
X216763Y7936D02*
X215976Y8723D01*
X214402D01*
X213614Y7936D01*
Y4787D01*
X214402Y4000D01*
X215976D01*
X216763Y4787D01*
X218337Y4000D02*
Y8723D01*
X220699D01*
X221486Y7936D01*
Y6361D01*
X220699Y5574D01*
X218337D01*
X219912D02*
X221486Y4000D01*
X226209Y8723D02*
X223060D01*
Y4000D01*
X226209D01*
X223060Y6361D02*
X224635D01*
X230932Y7936D02*
X230145Y8723D01*
X228570D01*
X227783Y7936D01*
Y7149D01*
X228570Y6361D01*
X230145D01*
X230932Y5574D01*
Y4787D01*
X230145Y4000D01*
X228570D01*
X227783Y4787D01*
X232506Y8723D02*
X235654D01*
X234080D01*
Y4000D01*
X237229D02*
Y7149D01*
X238803Y8723D01*
X240377Y7149D01*
Y4000D01*
Y6361D01*
X237229D01*
X249823Y7936D02*
X249036Y8723D01*
X247462D01*
X246675Y7936D01*
Y7149D01*
X247462Y6361D01*
X249036D01*
X249823Y5574D01*
Y4787D01*
X249036Y4000D01*
X247462D01*
X246675Y4787D01*
X251397Y8723D02*
X252972D01*
X252185D01*
Y4000D01*
X251397D01*
X252972D01*
X255333D02*
Y8723D01*
X258482Y4000D01*
Y8723D01*
X263205Y7936D02*
X262418Y8723D01*
X260843D01*
X260056Y7936D01*
Y4787D01*
X260843Y4000D01*
X262418D01*
X263205Y4787D01*
Y6361D01*
X261630D01*
X264779Y8723D02*
Y4000D01*
X267928D01*
X272650Y8723D02*
X269502D01*
Y4000D01*
X272650D01*
X269502Y6361D02*
X271076D01*
X278948Y4000D02*
Y8723D01*
X281309D01*
X282096Y7936D01*
Y6361D01*
X281309Y5574D01*
X278948D01*
X280522D02*
X282096Y4000D01*
X286032Y8723D02*
X284458D01*
X283670Y7936D01*
Y4787D01*
X284458Y4000D01*
X286032D01*
X286819Y4787D01*
Y7936D01*
X286032Y8723D01*
X288393Y4000D02*
Y8723D01*
X289968Y7149D01*
X291542Y8723D01*
Y4000D01*
X297839Y8723D02*
Y4000D01*
X300201D01*
X300988Y4787D01*
Y5574D01*
X300201Y6361D01*
X297839D01*
X300201D01*
X300988Y7149D01*
Y7936D01*
X300201Y8723D01*
X297839D01*
X304923D02*
X303349D01*
X302562Y7936D01*
Y4787D01*
X303349Y4000D01*
X304923D01*
X305711Y4787D01*
Y7936D01*
X304923Y8723D01*
X307285Y4000D02*
Y7149D01*
X308859Y8723D01*
X310433Y7149D01*
Y4000D01*
Y6361D01*
X307285D01*
X312008Y4000D02*
Y8723D01*
X314369D01*
X315156Y7936D01*
Y6361D01*
X314369Y5574D01*
X312008D01*
X313582D02*
X315156Y4000D01*
X316731Y8723D02*
Y4000D01*
X319092D01*
X319879Y4787D01*
Y7936D01*
X319092Y8723D01*
X316731D01*
D20*
X230784Y134496D02*
G03*
X230784Y134496I-1181J0D01*
G01*
X217185Y90327D02*
G03*
X217185Y90327I-1181J0D01*
G01*
D21*
X234110Y143000D02*
G03*
X234110Y143000I-492J0D01*
G01*
X207992Y89618D02*
G03*
X207992Y89618I-492J0D01*
G01*
D22*
X233539Y130500D02*
G03*
X233539Y125500I0J-2500D01*
G01*
X220000Y94264D02*
G03*
X225000Y94264I2500J0D01*
G01*
X213461Y117567D02*
Y138433D01*
X233539Y117567D02*
Y125500D01*
Y130500D02*
Y138433D01*
X213461Y117567D02*
X233539D01*
X213461Y138433D02*
X233539D01*
X212067Y14736D02*
X232933D01*
X225000Y94264D02*
X232933D01*
X212067D02*
X220000D01*
X232933Y14736D02*
Y94264D01*
X212067Y14736D02*
Y94264D01*
D23*
X191499Y85499D02*
X190500D01*
X190000Y84999D01*
Y83000D01*
X190500Y82500D01*
X191499D01*
X191999Y83000D01*
Y84999D01*
X191499Y85499D01*
X194998D02*
X192999D01*
Y82500D01*
X194998D01*
X192999Y84000D02*
X193999D01*
X85500Y93000D02*
Y94999D01*
X86500Y95999D01*
X87499Y94999D01*
Y93000D01*
Y94499D01*
X85500D01*
X88499Y93000D02*
X89499D01*
X88999D01*
Y95999D01*
X88499Y95499D01*
X90998D02*
X91498Y95999D01*
X92498D01*
X92998Y95499D01*
Y94999D01*
X92498Y94499D01*
X91998D01*
X92498D01*
X92998Y94000D01*
Y93500D01*
X92498Y93000D01*
X91498D01*
X90998Y93500D01*
X96996Y93000D02*
X98996Y94999D01*
X104494Y95999D02*
X103494D01*
X102994Y95499D01*
Y93500D01*
X103494Y93000D01*
X104494D01*
X104994Y93500D01*
Y95499D01*
X104494Y95999D01*
X107993D02*
X105993D01*
Y93000D01*
X107993D01*
X105993Y94499D02*
X106993D01*
X190500Y93000D02*
Y94999D01*
X191500Y95999D01*
X192499Y94999D01*
Y93000D01*
Y94499D01*
X190500D01*
X193499Y93000D02*
X194499D01*
X193999D01*
Y95999D01*
X193499Y95499D01*
X195998Y93000D02*
X196998D01*
X196498D01*
Y95999D01*
X195998Y95499D01*
X190000Y123000D02*
Y124999D01*
X191000Y125999D01*
X191999Y124999D01*
Y123000D01*
Y124499D01*
X190000D01*
X192999Y123000D02*
X193999D01*
X193499D01*
Y125999D01*
X192999Y125499D01*
X195498D02*
X195998Y125999D01*
X196998D01*
X197498Y125499D01*
Y124999D01*
X196998Y124499D01*
X196498D01*
X196998D01*
X197498Y124000D01*
Y123500D01*
X196998Y123000D01*
X195998D01*
X195498Y123500D01*
X190000Y133500D02*
Y135499D01*
X191000Y136499D01*
X191999Y135499D01*
Y133500D01*
Y135000D01*
X190000D01*
X192999Y133500D02*
X193999D01*
X193499D01*
Y136499D01*
X192999Y135999D01*
X196998Y133500D02*
Y136499D01*
X195498Y135000D01*
X197498D01*
X110500Y133500D02*
Y135499D01*
X111500Y136499D01*
X112499Y135499D01*
Y133500D01*
Y135000D01*
X110500D01*
X113499Y133500D02*
X114499D01*
X113999D01*
Y136499D01*
X113499Y135999D01*
X117998Y133500D02*
X115998D01*
X117998Y135499D01*
Y135999D01*
X117498Y136499D01*
X116498D01*
X115998Y135999D01*
X110500Y143000D02*
Y144999D01*
X111500Y145999D01*
X112499Y144999D01*
Y143000D01*
Y144500D01*
X110500D01*
X113499Y143000D02*
X114499D01*
X113999D01*
Y145999D01*
X113499Y145499D01*
X117998Y145999D02*
X115998D01*
Y144500D01*
X116998Y144999D01*
X117498D01*
X117998Y144500D01*
Y143500D01*
X117498Y143000D01*
X116498D01*
X115998Y143500D01*
X325500Y73000D02*
Y74999D01*
X326500Y75999D01*
X327499Y74999D01*
Y73000D01*
Y74499D01*
X325500D01*
X328499Y73000D02*
X329499D01*
X328999D01*
Y75999D01*
X328499Y75499D01*
X330998Y73000D02*
X331998D01*
X331498D01*
Y75999D01*
X330998Y75499D01*
X326999Y95999D02*
X326000D01*
X325500Y95499D01*
Y93500D01*
X326000Y93000D01*
X326999D01*
X327499Y93500D01*
Y95499D01*
X326999Y95999D01*
X330498D02*
X328499D01*
Y93000D01*
X330498D01*
X328499Y94499D02*
X329499D01*
X325000Y103500D02*
Y105499D01*
X326000Y106499D01*
X326999Y105499D01*
Y103500D01*
Y104999D01*
X325000D01*
X327999Y103500D02*
X328999D01*
X328499D01*
Y106499D01*
X327999Y105999D01*
X332498Y103500D02*
X330498D01*
X332498Y105499D01*
Y105999D01*
X331998Y106499D01*
X330998D01*
X330498Y105999D01*
X220500Y98500D02*
X217834D01*
X216501Y99833D01*
X217834Y101166D01*
X220500D01*
X218501D01*
Y98500D01*
X220500Y102499D02*
Y103832D01*
Y103165D01*
X216501D01*
X217168Y102499D01*
X216501Y108497D02*
Y105831D01*
X218501D01*
X217834Y107164D01*
Y107830D01*
X218501Y108497D01*
X219834D01*
X220500Y107830D01*
Y106497D01*
X219834Y105831D01*
X230500Y98500D02*
X227834D01*
X226501Y99833D01*
X227834Y101166D01*
X230500D01*
X228501D01*
Y98500D01*
X230500Y102499D02*
Y103832D01*
Y103165D01*
X226501D01*
X227168Y102499D01*
X230500Y107830D02*
X226501D01*
X228501Y105831D01*
Y108497D01*
M02*
