G04 Layer_Physical_Order=2*
G04 Layer_Color=16711680*
%FSLAX25Y25*%
%MOIN*%
G70*
G01*
G75*
%ADD10C,0.01000*%
%ADD11C,0.05906*%
%ADD12R,0.05906X0.05906*%
%ADD13R,0.05906X0.05906*%
%ADD14R,0.06200X0.06200*%
%ADD15C,0.06200*%
%ADD16C,0.05000*%
%ADD17R,0.06000X0.06000*%
%ADD18C,0.03000*%
%ADD19C,0.02000*%
G36*
X335000Y0D02*
X0D01*
Y160000D01*
X335000D01*
Y0D01*
D02*
G37*
%LPC*%
G36*
X260000Y58635D02*
X258930Y58495D01*
X257932Y58081D01*
X257076Y57424D01*
X256419Y56568D01*
X256006Y55570D01*
X255865Y54500D01*
X256006Y53430D01*
X256419Y52432D01*
X257076Y51576D01*
X257932Y50919D01*
X258930Y50506D01*
X260000Y50365D01*
X261070Y50506D01*
X262068Y50919D01*
X262924Y51576D01*
X263581Y52432D01*
X263995Y53430D01*
X264135Y54500D01*
X263995Y55570D01*
X263581Y56568D01*
X262924Y57424D01*
X262068Y58081D01*
X261070Y58495D01*
X260000Y58635D01*
D02*
G37*
G36*
X238000Y48421D02*
Y45000D01*
X241421D01*
X241351Y45532D01*
X240953Y46493D01*
X240319Y47319D01*
X239493Y47953D01*
X238532Y48351D01*
X238000Y48421D01*
D02*
G37*
G36*
X237000D02*
X236468Y48351D01*
X235507Y47953D01*
X234681Y47319D01*
X234047Y46493D01*
X233649Y45532D01*
X233579Y45000D01*
X237000D01*
Y48421D01*
D02*
G37*
G36*
X207000Y54000D02*
X203579D01*
X203649Y53468D01*
X204047Y52507D01*
X204681Y51681D01*
X205507Y51047D01*
X206468Y50649D01*
X207000Y50579D01*
Y54000D01*
D02*
G37*
G36*
X237500Y58487D02*
X236468Y58351D01*
X235507Y57953D01*
X234681Y57319D01*
X234047Y56493D01*
X233649Y55532D01*
X233513Y54500D01*
X233649Y53468D01*
X234047Y52507D01*
X234681Y51681D01*
X235507Y51047D01*
X236468Y50649D01*
X237500Y50513D01*
X238532Y50649D01*
X239493Y51047D01*
X240319Y51681D01*
X240953Y52507D01*
X241351Y53468D01*
X241487Y54500D01*
X241351Y55532D01*
X240953Y56493D01*
X240319Y57319D01*
X239493Y57953D01*
X238532Y58351D01*
X237500Y58487D01*
D02*
G37*
G36*
X320000Y58635D02*
X318930Y58495D01*
X317932Y58081D01*
X317076Y57424D01*
X316419Y56568D01*
X316005Y55570D01*
X315865Y54500D01*
X316005Y53430D01*
X316419Y52432D01*
X317076Y51576D01*
X317932Y50919D01*
X318930Y50506D01*
X320000Y50365D01*
X321070Y50506D01*
X322068Y50919D01*
X322924Y51576D01*
X323581Y52432D01*
X323994Y53430D01*
X324135Y54500D01*
X323994Y55570D01*
X323581Y56568D01*
X322924Y57424D01*
X322068Y58081D01*
X321070Y58495D01*
X320000Y58635D01*
D02*
G37*
G36*
X237000Y44000D02*
X233579D01*
X233649Y43468D01*
X234047Y42507D01*
X234681Y41681D01*
X235507Y41047D01*
X236468Y40649D01*
X237000Y40579D01*
Y44000D01*
D02*
G37*
G36*
X211421D02*
X208000D01*
Y40579D01*
X208532Y40649D01*
X209493Y41047D01*
X210319Y41681D01*
X210953Y42507D01*
X211351Y43468D01*
X211421Y44000D01*
D02*
G37*
G36*
X207000D02*
X203579D01*
X203649Y43468D01*
X204047Y42507D01*
X204681Y41681D01*
X205507Y41047D01*
X206468Y40649D01*
X207000Y40579D01*
Y44000D01*
D02*
G37*
G36*
X208000Y48421D02*
Y45000D01*
X211421D01*
X211351Y45532D01*
X210953Y46493D01*
X210319Y47319D01*
X209493Y47953D01*
X208532Y48351D01*
X208000Y48421D01*
D02*
G37*
G36*
X207000D02*
X206468Y48351D01*
X205507Y47953D01*
X204681Y47319D01*
X204047Y46493D01*
X203649Y45532D01*
X203579Y45000D01*
X207000D01*
Y48421D01*
D02*
G37*
G36*
X241421Y44000D02*
X238000D01*
Y40579D01*
X238532Y40649D01*
X239493Y41047D01*
X240319Y41681D01*
X240953Y42507D01*
X241351Y43468D01*
X241421Y44000D01*
D02*
G37*
G36*
X211421Y54000D02*
X208000D01*
Y50579D01*
X208532Y50649D01*
X209493Y51047D01*
X210319Y51681D01*
X210953Y52507D01*
X211351Y53468D01*
X211421Y54000D01*
D02*
G37*
G36*
X184500Y68570D02*
X183930Y68494D01*
X182932Y68081D01*
X182076Y67424D01*
X181419Y66568D01*
X181006Y65570D01*
X180930Y65000D01*
X184500D01*
Y68570D01*
D02*
G37*
G36*
X241421Y64000D02*
X238000D01*
Y60579D01*
X238532Y60649D01*
X239493Y61047D01*
X240319Y61681D01*
X240953Y62507D01*
X241351Y63468D01*
X241421Y64000D01*
D02*
G37*
G36*
X237000D02*
X233579D01*
X233649Y63468D01*
X234047Y62507D01*
X234681Y61681D01*
X235507Y61047D01*
X236468Y60649D01*
X237000Y60579D01*
Y64000D01*
D02*
G37*
G36*
X238000Y68421D02*
Y65000D01*
X241421D01*
X241351Y65532D01*
X240953Y66493D01*
X240319Y67319D01*
X239493Y67953D01*
X238532Y68351D01*
X238000Y68421D01*
D02*
G37*
G36*
X237000D02*
X236468Y68351D01*
X235507Y67953D01*
X234681Y67319D01*
X234047Y66493D01*
X233649Y65532D01*
X233579Y65000D01*
X237000D01*
Y68421D01*
D02*
G37*
G36*
X185500Y68570D02*
Y65000D01*
X189070D01*
X188995Y65570D01*
X188581Y66568D01*
X187924Y67424D01*
X187068Y68081D01*
X186070Y68494D01*
X185500Y68570D01*
D02*
G37*
G36*
X260000Y68635D02*
X258930Y68494D01*
X257932Y68081D01*
X257076Y67424D01*
X256419Y66568D01*
X256006Y65570D01*
X255865Y64500D01*
X256006Y63430D01*
X256419Y62432D01*
X257076Y61576D01*
X257932Y60919D01*
X258930Y60505D01*
X260000Y60365D01*
X261070Y60505D01*
X262068Y60919D01*
X262924Y61576D01*
X263581Y62432D01*
X263995Y63430D01*
X264135Y64500D01*
X263995Y65570D01*
X263581Y66568D01*
X262924Y67424D01*
X262068Y68081D01*
X261070Y68494D01*
X260000Y68635D01*
D02*
G37*
G36*
X208000Y58421D02*
Y55000D01*
X211421D01*
X211351Y55532D01*
X210953Y56493D01*
X210319Y57319D01*
X209493Y57953D01*
X208532Y58351D01*
X208000Y58421D01*
D02*
G37*
G36*
X207000D02*
X206468Y58351D01*
X205507Y57953D01*
X204681Y57319D01*
X204047Y56493D01*
X203649Y55532D01*
X203579Y55000D01*
X207000D01*
Y58421D01*
D02*
G37*
G36*
X189070Y64000D02*
X185500D01*
Y60430D01*
X186070Y60505D01*
X187068Y60919D01*
X187924Y61576D01*
X188581Y62432D01*
X188995Y63430D01*
X189070Y64000D01*
D02*
G37*
G36*
X184500D02*
X180930D01*
X181006Y63430D01*
X181419Y62432D01*
X182076Y61576D01*
X182932Y60919D01*
X183930Y60505D01*
X184500Y60430D01*
Y64000D01*
D02*
G37*
G36*
X320000Y68635D02*
X318930Y68494D01*
X317932Y68081D01*
X317076Y67424D01*
X316419Y66568D01*
X316005Y65570D01*
X315865Y64500D01*
X316005Y63430D01*
X316419Y62432D01*
X317076Y61576D01*
X317932Y60919D01*
X318930Y60505D01*
X320000Y60365D01*
X321070Y60505D01*
X322068Y60919D01*
X322924Y61576D01*
X323581Y62432D01*
X323994Y63430D01*
X324135Y64500D01*
X323994Y65570D01*
X323581Y66568D01*
X322924Y67424D01*
X322068Y68081D01*
X321070Y68494D01*
X320000Y68635D01*
D02*
G37*
G36*
X207000Y24000D02*
X203579D01*
X203649Y23468D01*
X204047Y22507D01*
X204681Y21681D01*
X205507Y21047D01*
X206468Y20649D01*
X207000Y20579D01*
Y24000D01*
D02*
G37*
G36*
X237500Y28487D02*
X236468Y28351D01*
X235507Y27953D01*
X234681Y27319D01*
X234047Y26493D01*
X233649Y25532D01*
X233513Y24500D01*
X233649Y23468D01*
X234047Y22507D01*
X234681Y21681D01*
X235507Y21047D01*
X236468Y20649D01*
X237500Y20513D01*
X238532Y20649D01*
X239493Y21047D01*
X240319Y21681D01*
X240953Y22507D01*
X241351Y23468D01*
X241487Y24500D01*
X241351Y25532D01*
X240953Y26493D01*
X240319Y27319D01*
X239493Y27953D01*
X238532Y28351D01*
X237500Y28487D01*
D02*
G37*
G36*
X264070Y24000D02*
X260500D01*
Y20430D01*
X261070Y20505D01*
X262068Y20919D01*
X262924Y21576D01*
X263581Y22432D01*
X263995Y23430D01*
X264070Y24000D01*
D02*
G37*
G36*
X20500Y28569D02*
Y25000D01*
X24070D01*
X23994Y25570D01*
X23581Y26568D01*
X22924Y27424D01*
X22068Y28081D01*
X21070Y28495D01*
X20500Y28569D01*
D02*
G37*
G36*
X19500D02*
X18930Y28495D01*
X17932Y28081D01*
X17076Y27424D01*
X16419Y26568D01*
X16005Y25570D01*
X15930Y25000D01*
X19500D01*
Y28569D01*
D02*
G37*
G36*
X211421Y24000D02*
X208000D01*
Y20579D01*
X208532Y20649D01*
X209493Y21047D01*
X210319Y21681D01*
X210953Y22507D01*
X211351Y23468D01*
X211421Y24000D01*
D02*
G37*
G36*
X320000Y28635D02*
X318930Y28495D01*
X317932Y28081D01*
X317076Y27424D01*
X316419Y26568D01*
X316005Y25570D01*
X315865Y24500D01*
X316005Y23430D01*
X316419Y22432D01*
X317076Y21576D01*
X317932Y20919D01*
X318930Y20505D01*
X320000Y20365D01*
X321070Y20505D01*
X322068Y20919D01*
X322924Y21576D01*
X323581Y22432D01*
X323994Y23430D01*
X324135Y24500D01*
X323994Y25570D01*
X323581Y26568D01*
X322924Y27424D01*
X322068Y28081D01*
X321070Y28495D01*
X320000Y28635D01*
D02*
G37*
G36*
X129070Y14000D02*
X125500D01*
Y10430D01*
X126070Y10505D01*
X127068Y10919D01*
X127924Y11576D01*
X128581Y12432D01*
X128995Y13430D01*
X129070Y14000D01*
D02*
G37*
G36*
X124500D02*
X120930D01*
X121005Y13430D01*
X121419Y12432D01*
X122076Y11576D01*
X122932Y10919D01*
X123930Y10505D01*
X124500Y10430D01*
Y14000D01*
D02*
G37*
G36*
X259500Y24000D02*
X255930D01*
X256006Y23430D01*
X256419Y22432D01*
X257076Y21576D01*
X257932Y20919D01*
X258930Y20505D01*
X259500Y20430D01*
Y24000D01*
D02*
G37*
G36*
X24070D02*
X20500D01*
Y20430D01*
X21070Y20505D01*
X22068Y20919D01*
X22924Y21576D01*
X23581Y22432D01*
X23994Y23430D01*
X24070Y24000D01*
D02*
G37*
G36*
X19500D02*
X15930D01*
X16005Y23430D01*
X16419Y22432D01*
X17076Y21576D01*
X17932Y20919D01*
X18930Y20505D01*
X19500Y20430D01*
Y24000D01*
D02*
G37*
G36*
X207000Y28421D02*
X206468Y28351D01*
X205507Y27953D01*
X204681Y27319D01*
X204047Y26493D01*
X203649Y25532D01*
X203579Y25000D01*
X207000D01*
Y28421D01*
D02*
G37*
G36*
X237000Y38421D02*
X236468Y38351D01*
X235507Y37953D01*
X234681Y37319D01*
X234047Y36493D01*
X233649Y35532D01*
X233579Y35000D01*
X237000D01*
Y38421D01*
D02*
G37*
G36*
X241421Y34000D02*
X238000D01*
Y30579D01*
X238532Y30649D01*
X239493Y31047D01*
X240319Y31681D01*
X240953Y32507D01*
X241351Y33468D01*
X241421Y34000D01*
D02*
G37*
G36*
X237000D02*
X233579D01*
X233649Y33468D01*
X234047Y32507D01*
X234681Y31681D01*
X235507Y31047D01*
X236468Y30649D01*
X237000Y30579D01*
Y34000D01*
D02*
G37*
G36*
X320000Y48635D02*
X318930Y48494D01*
X317932Y48081D01*
X317076Y47424D01*
X316419Y46568D01*
X316005Y45570D01*
X315865Y44500D01*
X316005Y43430D01*
X316419Y42432D01*
X317076Y41576D01*
X317932Y40919D01*
X318930Y40505D01*
X320000Y40365D01*
X321070Y40505D01*
X322068Y40919D01*
X322924Y41576D01*
X323581Y42432D01*
X323994Y43430D01*
X324135Y44500D01*
X323994Y45570D01*
X323581Y46568D01*
X322924Y47424D01*
X322068Y48081D01*
X321070Y48494D01*
X320000Y48635D01*
D02*
G37*
G36*
X260000D02*
X258930Y48494D01*
X257932Y48081D01*
X257076Y47424D01*
X256419Y46568D01*
X256006Y45570D01*
X255865Y44500D01*
X256006Y43430D01*
X256419Y42432D01*
X257076Y41576D01*
X257932Y40919D01*
X258930Y40505D01*
X260000Y40365D01*
X261070Y40505D01*
X262068Y40919D01*
X262924Y41576D01*
X263581Y42432D01*
X263995Y43430D01*
X264135Y44500D01*
X263995Y45570D01*
X263581Y46568D01*
X262924Y47424D01*
X262068Y48081D01*
X261070Y48494D01*
X260000Y48635D01*
D02*
G37*
G36*
X238000Y38421D02*
Y35000D01*
X241421D01*
X241351Y35532D01*
X240953Y36493D01*
X240319Y37319D01*
X239493Y37953D01*
X238532Y38351D01*
X238000Y38421D01*
D02*
G37*
G36*
X260500Y28569D02*
Y25000D01*
X264070D01*
X263995Y25570D01*
X263581Y26568D01*
X262924Y27424D01*
X262068Y28081D01*
X261070Y28495D01*
X260500Y28569D01*
D02*
G37*
G36*
X259500D02*
X258930Y28495D01*
X257932Y28081D01*
X257076Y27424D01*
X256419Y26568D01*
X256006Y25570D01*
X255930Y25000D01*
X259500D01*
Y28569D01*
D02*
G37*
G36*
X208000Y28421D02*
Y25000D01*
X211421D01*
X211351Y25532D01*
X210953Y26493D01*
X210319Y27319D01*
X209493Y27953D01*
X208532Y28351D01*
X208000Y28421D01*
D02*
G37*
G36*
X207500Y38487D02*
X206468Y38351D01*
X205507Y37953D01*
X204681Y37319D01*
X204047Y36493D01*
X203649Y35532D01*
X203513Y34500D01*
X203649Y33468D01*
X204047Y32507D01*
X204681Y31681D01*
X205507Y31047D01*
X206468Y30649D01*
X207500Y30513D01*
X208532Y30649D01*
X209493Y31047D01*
X210319Y31681D01*
X210953Y32507D01*
X211351Y33468D01*
X211487Y34500D01*
X211351Y35532D01*
X210953Y36493D01*
X210319Y37319D01*
X209493Y37953D01*
X208532Y38351D01*
X207500Y38487D01*
D02*
G37*
G36*
X320000Y38635D02*
X318930Y38495D01*
X317932Y38081D01*
X317076Y37424D01*
X316419Y36568D01*
X316005Y35570D01*
X315865Y34500D01*
X316005Y33430D01*
X316419Y32432D01*
X317076Y31576D01*
X317932Y30919D01*
X318930Y30505D01*
X320000Y30365D01*
X321070Y30505D01*
X322068Y30919D01*
X322924Y31576D01*
X323581Y32432D01*
X323994Y33430D01*
X324135Y34500D01*
X323994Y35570D01*
X323581Y36568D01*
X322924Y37424D01*
X322068Y38081D01*
X321070Y38495D01*
X320000Y38635D01*
D02*
G37*
G36*
X260000D02*
X258930Y38495D01*
X257932Y38081D01*
X257076Y37424D01*
X256419Y36568D01*
X256006Y35570D01*
X255865Y34500D01*
X256006Y33430D01*
X256419Y32432D01*
X257076Y31576D01*
X257932Y30919D01*
X258930Y30505D01*
X260000Y30365D01*
X261070Y30505D01*
X262068Y30919D01*
X262924Y31576D01*
X263581Y32432D01*
X263995Y33430D01*
X264135Y34500D01*
X263995Y35570D01*
X263581Y36568D01*
X262924Y37424D01*
X262068Y38081D01*
X261070Y38495D01*
X260000Y38635D01*
D02*
G37*
G36*
Y78635D02*
X258930Y78495D01*
X257932Y78081D01*
X257076Y77424D01*
X256419Y76568D01*
X256006Y75570D01*
X255865Y74500D01*
X256006Y73430D01*
X256419Y72432D01*
X257076Y71576D01*
X257932Y70919D01*
X258930Y70505D01*
X260000Y70365D01*
X261070Y70505D01*
X262068Y70919D01*
X262924Y71576D01*
X263581Y72432D01*
X263995Y73430D01*
X264135Y74500D01*
X263995Y75570D01*
X263581Y76568D01*
X262924Y77424D01*
X262068Y78081D01*
X261070Y78495D01*
X260000Y78635D01*
D02*
G37*
G36*
X207500Y126000D02*
X204000D01*
Y122500D01*
X207500D01*
Y126000D01*
D02*
G37*
G36*
X320000Y128635D02*
X318930Y128495D01*
X317932Y128081D01*
X317076Y127424D01*
X316419Y126568D01*
X316005Y125570D01*
X315865Y124500D01*
X316005Y123430D01*
X316419Y122432D01*
X317076Y121576D01*
X317932Y120919D01*
X318930Y120505D01*
X320000Y120365D01*
X321070Y120505D01*
X322068Y120919D01*
X322924Y121576D01*
X323581Y122432D01*
X323994Y123430D01*
X324135Y124500D01*
X323994Y125570D01*
X323581Y126568D01*
X322924Y127424D01*
X322068Y128081D01*
X321070Y128495D01*
X320000Y128635D01*
D02*
G37*
G36*
X260000D02*
X258930Y128495D01*
X257932Y128081D01*
X257076Y127424D01*
X256419Y126568D01*
X256006Y125570D01*
X255865Y124500D01*
X256006Y123430D01*
X256419Y122432D01*
X257076Y121576D01*
X257932Y120919D01*
X258930Y120505D01*
X260000Y120365D01*
X261070Y120505D01*
X262068Y120919D01*
X262924Y121576D01*
X263581Y122432D01*
X263995Y123430D01*
X264135Y124500D01*
X263995Y125570D01*
X263581Y126568D01*
X262924Y127424D01*
X262068Y128081D01*
X261070Y128495D01*
X260000Y128635D01*
D02*
G37*
G36*
X243000Y126000D02*
X239500D01*
Y122500D01*
X243000D01*
Y126000D01*
D02*
G37*
G36*
X238500D02*
X235000D01*
Y122500D01*
X238500D01*
Y126000D01*
D02*
G37*
G36*
X212000D02*
X208500D01*
Y122500D01*
X212000D01*
Y126000D01*
D02*
G37*
G36*
Y117000D02*
X204000D01*
Y109000D01*
X212000D01*
Y111471D01*
X214855D01*
X215047Y111007D01*
X215681Y110181D01*
X216507Y109547D01*
X217468Y109149D01*
X218500Y109013D01*
X219532Y109149D01*
X220493Y109547D01*
X221319Y110181D01*
X221953Y111007D01*
X222351Y111968D01*
X222487Y113000D01*
X222351Y114032D01*
X221953Y114993D01*
X221319Y115819D01*
X220493Y116453D01*
X219532Y116851D01*
X218500Y116987D01*
X217468Y116851D01*
X216507Y116453D01*
X215681Y115819D01*
X215047Y114993D01*
X214855Y114529D01*
X212000D01*
Y117000D01*
D02*
G37*
G36*
X320000Y108635D02*
X318930Y108494D01*
X317932Y108081D01*
X317076Y107424D01*
X316419Y106568D01*
X316005Y105570D01*
X315865Y104500D01*
X316005Y103430D01*
X316419Y102432D01*
X317076Y101576D01*
X317932Y100919D01*
X318930Y100505D01*
X320000Y100365D01*
X321070Y100505D01*
X322068Y100919D01*
X322924Y101576D01*
X323581Y102432D01*
X323994Y103430D01*
X324135Y104500D01*
X323994Y105570D01*
X323581Y106568D01*
X322924Y107424D01*
X322068Y108081D01*
X321070Y108494D01*
X320000Y108635D01*
D02*
G37*
G36*
X260000D02*
X258930Y108494D01*
X257932Y108081D01*
X257076Y107424D01*
X256419Y106568D01*
X256006Y105570D01*
X255865Y104500D01*
X256006Y103430D01*
X256419Y102432D01*
X257076Y101576D01*
X257932Y100919D01*
X258930Y100505D01*
X260000Y100365D01*
X261070Y100505D01*
X262068Y100919D01*
X262924Y101576D01*
X263581Y102432D01*
X263995Y103430D01*
X264135Y104500D01*
X263995Y105570D01*
X263581Y106568D01*
X262924Y107424D01*
X262068Y108081D01*
X261070Y108494D01*
X260000Y108635D01*
D02*
G37*
G36*
X243000Y117000D02*
X235000D01*
Y114529D01*
X232145D01*
X231953Y114993D01*
X231319Y115819D01*
X230493Y116453D01*
X229532Y116851D01*
X228500Y116987D01*
X227468Y116851D01*
X226507Y116453D01*
X225681Y115819D01*
X225047Y114993D01*
X224649Y114032D01*
X224513Y113000D01*
X224649Y111968D01*
X225047Y111007D01*
X225681Y110181D01*
X226507Y109547D01*
X227468Y109149D01*
X228500Y109013D01*
X229532Y109149D01*
X230493Y109547D01*
X231319Y110181D01*
X231953Y111007D01*
X232145Y111471D01*
X235000D01*
Y109000D01*
X243000D01*
Y117000D01*
D02*
G37*
G36*
X320000Y118635D02*
X318930Y118494D01*
X317932Y118081D01*
X317076Y117424D01*
X316419Y116568D01*
X316005Y115570D01*
X315865Y114500D01*
X316005Y113430D01*
X316419Y112432D01*
X317076Y111576D01*
X317932Y110919D01*
X318930Y110505D01*
X320000Y110365D01*
X321070Y110505D01*
X322068Y110919D01*
X322924Y111576D01*
X323581Y112432D01*
X323994Y113430D01*
X324135Y114500D01*
X323994Y115570D01*
X323581Y116568D01*
X322924Y117424D01*
X322068Y118081D01*
X321070Y118494D01*
X320000Y118635D01*
D02*
G37*
G36*
X260000D02*
X258930Y118494D01*
X257932Y118081D01*
X257076Y117424D01*
X256419Y116568D01*
X256006Y115570D01*
X255865Y114500D01*
X256006Y113430D01*
X256419Y112432D01*
X257076Y111576D01*
X257932Y110919D01*
X258930Y110505D01*
X260000Y110365D01*
X261070Y110505D01*
X262068Y110919D01*
X262924Y111576D01*
X263581Y112432D01*
X263995Y113430D01*
X264135Y114500D01*
X263995Y115570D01*
X263581Y116568D01*
X262924Y117424D01*
X262068Y118081D01*
X261070Y118494D01*
X260000Y118635D01*
D02*
G37*
G36*
X194500Y130500D02*
X191000D01*
Y127000D01*
X194500D01*
Y130500D01*
D02*
G37*
G36*
X300000Y157049D02*
X100000D01*
X99024Y156855D01*
X98198Y156302D01*
X80495Y138600D01*
X75900D01*
Y131029D01*
X25633D01*
X23772Y132891D01*
X23994Y133430D01*
X24135Y134500D01*
X23994Y135570D01*
X23581Y136568D01*
X22924Y137424D01*
X22068Y138081D01*
X21070Y138495D01*
X20000Y138635D01*
X18930Y138495D01*
X17932Y138081D01*
X17076Y137424D01*
X16419Y136568D01*
X16005Y135570D01*
X15865Y134500D01*
X16005Y133430D01*
X16419Y132432D01*
X17076Y131576D01*
X17932Y130919D01*
X18930Y130506D01*
X20000Y130365D01*
X21070Y130506D01*
X21609Y130728D01*
X23919Y128419D01*
X24415Y128087D01*
X25000Y127971D01*
X77010D01*
X77171Y127497D01*
X77076Y127424D01*
X76419Y126568D01*
X76006Y125570D01*
X75865Y124500D01*
X76006Y123430D01*
X76419Y122432D01*
X77076Y121576D01*
X77171Y121503D01*
X77010Y121029D01*
X25633D01*
X23772Y122891D01*
X23994Y123430D01*
X24135Y124500D01*
X23994Y125570D01*
X23581Y126568D01*
X22924Y127424D01*
X22068Y128081D01*
X21070Y128495D01*
X20000Y128635D01*
X18930Y128495D01*
X17932Y128081D01*
X17076Y127424D01*
X16419Y126568D01*
X16005Y125570D01*
X15865Y124500D01*
X16005Y123430D01*
X16419Y122432D01*
X17076Y121576D01*
X17932Y120919D01*
X18930Y120505D01*
X20000Y120365D01*
X21070Y120505D01*
X21609Y120729D01*
X23919Y118419D01*
X24415Y118087D01*
X25000Y117971D01*
X77010D01*
X77171Y117497D01*
X77076Y117424D01*
X76419Y116568D01*
X76006Y115570D01*
X75865Y114500D01*
X76006Y113430D01*
X76419Y112432D01*
X77076Y111576D01*
X77171Y111503D01*
X77010Y111029D01*
X25633D01*
X23772Y112891D01*
X23994Y113430D01*
X24135Y114500D01*
X23994Y115570D01*
X23581Y116568D01*
X22924Y117424D01*
X22068Y118081D01*
X21070Y118494D01*
X20000Y118635D01*
X18930Y118494D01*
X17932Y118081D01*
X17076Y117424D01*
X16419Y116568D01*
X16005Y115570D01*
X15865Y114500D01*
X16005Y113430D01*
X16419Y112432D01*
X17076Y111576D01*
X17932Y110919D01*
X18930Y110505D01*
X20000Y110365D01*
X21070Y110505D01*
X21609Y110729D01*
X23919Y108419D01*
X24415Y108087D01*
X25000Y107971D01*
X77010D01*
X77171Y107497D01*
X77076Y107424D01*
X76419Y106568D01*
X76006Y105570D01*
X75865Y104500D01*
X76006Y103430D01*
X76419Y102432D01*
X77076Y101576D01*
X77171Y101503D01*
X77010Y101029D01*
X25633D01*
X23772Y102891D01*
X23994Y103430D01*
X24135Y104500D01*
X23994Y105570D01*
X23581Y106568D01*
X22924Y107424D01*
X22068Y108081D01*
X21070Y108494D01*
X20000Y108635D01*
X18930Y108494D01*
X17932Y108081D01*
X17076Y107424D01*
X16419Y106568D01*
X16005Y105570D01*
X15865Y104500D01*
X16005Y103430D01*
X16419Y102432D01*
X17076Y101576D01*
X17932Y100919D01*
X18930Y100505D01*
X20000Y100365D01*
X21070Y100505D01*
X21609Y100728D01*
X23919Y98419D01*
X24415Y98087D01*
X25000Y97971D01*
X77010D01*
X77171Y97497D01*
X77076Y97424D01*
X76419Y96568D01*
X76006Y95570D01*
X75865Y94500D01*
X76006Y93430D01*
X76419Y92432D01*
X77076Y91576D01*
X77171Y91503D01*
X77010Y91029D01*
X25633D01*
X23772Y92891D01*
X23994Y93430D01*
X24135Y94500D01*
X23994Y95570D01*
X23581Y96568D01*
X22924Y97424D01*
X22068Y98081D01*
X21070Y98494D01*
X20000Y98635D01*
X18930Y98494D01*
X17932Y98081D01*
X17076Y97424D01*
X16419Y96568D01*
X16005Y95570D01*
X15865Y94500D01*
X16005Y93430D01*
X16419Y92432D01*
X17076Y91576D01*
X17932Y90919D01*
X18930Y90505D01*
X20000Y90365D01*
X21070Y90505D01*
X21609Y90728D01*
X23919Y88419D01*
X24415Y88087D01*
X25000Y87971D01*
X77010D01*
X77171Y87497D01*
X77076Y87424D01*
X76419Y86568D01*
X76006Y85570D01*
X75865Y84500D01*
X76006Y83430D01*
X76419Y82432D01*
X77076Y81576D01*
X77171Y81503D01*
X77010Y81029D01*
X25633D01*
X23772Y82891D01*
X23994Y83430D01*
X24135Y84500D01*
X23994Y85570D01*
X23581Y86568D01*
X22924Y87424D01*
X22068Y88081D01*
X21070Y88494D01*
X20000Y88635D01*
X18930Y88494D01*
X17932Y88081D01*
X17076Y87424D01*
X16419Y86568D01*
X16005Y85570D01*
X15865Y84500D01*
X16005Y83430D01*
X16419Y82432D01*
X17076Y81576D01*
X17932Y80919D01*
X18930Y80506D01*
X20000Y80365D01*
X21070Y80506D01*
X21609Y80729D01*
X23919Y78419D01*
X24415Y78087D01*
X25000Y77971D01*
X77010D01*
X77171Y77497D01*
X77076Y77424D01*
X76419Y76568D01*
X76006Y75570D01*
X75865Y74500D01*
X76006Y73430D01*
X76419Y72432D01*
X77076Y71576D01*
X77171Y71503D01*
X77010Y71029D01*
X25633D01*
X23772Y72891D01*
X23994Y73430D01*
X24135Y74500D01*
X23994Y75570D01*
X23581Y76568D01*
X22924Y77424D01*
X22068Y78081D01*
X21070Y78495D01*
X20000Y78635D01*
X18930Y78495D01*
X17932Y78081D01*
X17076Y77424D01*
X16419Y76568D01*
X16005Y75570D01*
X15865Y74500D01*
X16005Y73430D01*
X16419Y72432D01*
X17076Y71576D01*
X17932Y70919D01*
X18930Y70505D01*
X20000Y70365D01*
X21070Y70505D01*
X21609Y70728D01*
X23919Y68419D01*
X24415Y68087D01*
X25000Y67971D01*
X77010D01*
X77171Y67497D01*
X77076Y67424D01*
X76419Y66568D01*
X76006Y65570D01*
X75865Y64500D01*
X76006Y63430D01*
X76419Y62432D01*
X77076Y61576D01*
X77171Y61503D01*
X77010Y61029D01*
X25633D01*
X23772Y62891D01*
X23994Y63430D01*
X24135Y64500D01*
X23994Y65570D01*
X23581Y66568D01*
X22924Y67424D01*
X22068Y68081D01*
X21070Y68494D01*
X20000Y68635D01*
X18930Y68494D01*
X17932Y68081D01*
X17076Y67424D01*
X16419Y66568D01*
X16005Y65570D01*
X15865Y64500D01*
X16005Y63430D01*
X16419Y62432D01*
X17076Y61576D01*
X17932Y60919D01*
X18930Y60505D01*
X20000Y60365D01*
X21070Y60505D01*
X21609Y60729D01*
X23919Y58419D01*
X24415Y58087D01*
X25000Y57971D01*
X77010D01*
X77171Y57497D01*
X77076Y57424D01*
X76419Y56568D01*
X76006Y55570D01*
X75865Y54500D01*
X76006Y53430D01*
X76419Y52432D01*
X77076Y51576D01*
X77171Y51503D01*
X77010Y51029D01*
X25633D01*
X23772Y52891D01*
X23994Y53430D01*
X24135Y54500D01*
X23994Y55570D01*
X23581Y56568D01*
X22924Y57424D01*
X22068Y58081D01*
X21070Y58495D01*
X20000Y58635D01*
X18930Y58495D01*
X17932Y58081D01*
X17076Y57424D01*
X16419Y56568D01*
X16005Y55570D01*
X15865Y54500D01*
X16005Y53430D01*
X16419Y52432D01*
X17076Y51576D01*
X17932Y50919D01*
X18930Y50506D01*
X20000Y50365D01*
X21070Y50506D01*
X21609Y50728D01*
X23519Y48819D01*
X23919Y48419D01*
X24415Y48087D01*
X24415Y48087D01*
X24415Y48087D01*
D01*
X24415Y48087D01*
X24415Y48087D01*
X25000Y47971D01*
X77010D01*
X77171Y47497D01*
X77076Y47424D01*
X76419Y46568D01*
X76006Y45570D01*
X75865Y44500D01*
X76006Y43430D01*
X76419Y42432D01*
X77076Y41576D01*
X77171Y41503D01*
X77010Y41029D01*
X25633D01*
X24334Y42329D01*
X23772Y42891D01*
X23994Y43430D01*
X24135Y44500D01*
X23994Y45570D01*
X23581Y46568D01*
X22924Y47424D01*
X22068Y48081D01*
X21070Y48494D01*
X20000Y48635D01*
X18930Y48494D01*
X17932Y48081D01*
X17076Y47424D01*
X16419Y46568D01*
X16005Y45570D01*
X15865Y44500D01*
X16005Y43430D01*
X16419Y42432D01*
X17076Y41576D01*
X17932Y40919D01*
X18930Y40505D01*
X20000Y40365D01*
X21070Y40505D01*
X21609Y40729D01*
X22171Y40166D01*
Y40166D01*
X22171Y40166D01*
X23919Y38419D01*
X24415Y38087D01*
X25000Y37971D01*
X77010D01*
X77171Y37497D01*
X77076Y37424D01*
X76419Y36568D01*
X76006Y35570D01*
X75865Y34500D01*
X76006Y33430D01*
X76419Y32432D01*
X77076Y31576D01*
X77171Y31503D01*
X77010Y31029D01*
X26133D01*
X24587Y32576D01*
X24091Y32908D01*
X23915Y33237D01*
X23994Y33430D01*
X24135Y34500D01*
X23994Y35570D01*
X23581Y36568D01*
X22924Y37424D01*
X22068Y38081D01*
X21070Y38495D01*
X20000Y38635D01*
X18930Y38495D01*
X17932Y38081D01*
X17076Y37424D01*
X16419Y36568D01*
X16005Y35570D01*
X15865Y34500D01*
X16005Y33430D01*
X16419Y32432D01*
X17076Y31576D01*
X17932Y30919D01*
X18930Y30505D01*
X20000Y30365D01*
X21070Y30505D01*
X22068Y30919D01*
X22092Y30909D01*
D01*
X22424Y30413D01*
X24419Y28419D01*
X24915Y28087D01*
X25500Y27971D01*
X77010D01*
X77171Y27497D01*
X77076Y27424D01*
X76419Y26568D01*
X76006Y25570D01*
X75865Y24500D01*
X76006Y23430D01*
X76419Y22432D01*
X77076Y21576D01*
X77932Y20919D01*
X78930Y20505D01*
X80000Y20365D01*
X81070Y20505D01*
X82068Y20919D01*
X82924Y21576D01*
X83581Y22432D01*
X83804Y22971D01*
X99366D01*
X104419Y17919D01*
X104915Y17587D01*
X105012Y17568D01*
X105500Y17471D01*
X121546D01*
X121767Y17022D01*
X121419Y16568D01*
X121005Y15570D01*
X120930Y15000D01*
X129070D01*
X128995Y15570D01*
X128581Y16568D01*
X128233Y17022D01*
X128454Y17471D01*
X154367D01*
X158419Y13419D01*
X158419D01*
X158419Y13419D01*
X158419Y13419D01*
Y13419D01*
X158915Y13087D01*
X159500Y12971D01*
X181196D01*
X181419Y12432D01*
X182076Y11576D01*
X182932Y10919D01*
X183930Y10505D01*
X185000Y10365D01*
X186070Y10505D01*
X187068Y10919D01*
X187924Y11576D01*
X188581Y12432D01*
X188995Y13430D01*
X189135Y14500D01*
X188995Y15570D01*
X188581Y16568D01*
X187924Y17424D01*
X187068Y18081D01*
X186070Y18495D01*
X185000Y18635D01*
X183930Y18495D01*
X182932Y18081D01*
X182076Y17424D01*
X181419Y16568D01*
X181196Y16029D01*
X160134D01*
X156081Y20081D01*
X155585Y20413D01*
X155000Y20529D01*
X127338D01*
X127177Y21003D01*
X127924Y21576D01*
X128581Y22432D01*
X128995Y23430D01*
X129135Y24500D01*
X128995Y25570D01*
X128581Y26568D01*
X127924Y27424D01*
X127829Y27497D01*
X127990Y27971D01*
X154367D01*
X158919Y23419D01*
X159415Y23087D01*
X160000Y22971D01*
X181196D01*
X181419Y22432D01*
X182076Y21576D01*
X182932Y20919D01*
X183930Y20505D01*
X185000Y20365D01*
X186070Y20505D01*
X187068Y20919D01*
X187924Y21576D01*
X188581Y22432D01*
X188995Y23430D01*
X189135Y24500D01*
X188995Y25570D01*
X188581Y26568D01*
X187924Y27424D01*
X187068Y28081D01*
X186070Y28495D01*
X185000Y28635D01*
X183930Y28495D01*
X182932Y28081D01*
X182076Y27424D01*
X181419Y26568D01*
X181196Y26029D01*
X160634D01*
X156081Y30581D01*
X155585Y30913D01*
X155000Y31029D01*
X127990D01*
X127829Y31503D01*
X127924Y31576D01*
X128581Y32432D01*
X128995Y33430D01*
X129135Y34500D01*
X128995Y35570D01*
X128581Y36568D01*
X127924Y37424D01*
X127829Y37497D01*
X127990Y37971D01*
X154367D01*
X158919Y33419D01*
X158919D01*
X158919Y33419D01*
X158919Y33419D01*
Y33419D01*
X159415Y33087D01*
X160000Y32971D01*
X181196D01*
X181419Y32432D01*
X182076Y31576D01*
X182932Y30919D01*
X183930Y30505D01*
X185000Y30365D01*
X186070Y30505D01*
X187068Y30919D01*
X187924Y31576D01*
X188581Y32432D01*
X188995Y33430D01*
X189135Y34500D01*
X188995Y35570D01*
X188581Y36568D01*
X187924Y37424D01*
X187068Y38081D01*
X186070Y38495D01*
X185000Y38635D01*
X183930Y38495D01*
X182932Y38081D01*
X182076Y37424D01*
X181419Y36568D01*
X181196Y36029D01*
X160634D01*
X156081Y40581D01*
X155585Y40913D01*
X155000Y41029D01*
X127990D01*
X127829Y41503D01*
X127924Y41576D01*
X128581Y42432D01*
X128995Y43430D01*
X129135Y44500D01*
X128995Y45570D01*
X128581Y46568D01*
X127924Y47424D01*
X127829Y47497D01*
X127990Y47971D01*
X154367D01*
X158919Y43419D01*
X158919D01*
X158919Y43418D01*
X158919Y43418D01*
Y43418D01*
X159415Y43087D01*
X160000Y42971D01*
X181196D01*
X181419Y42432D01*
X182076Y41576D01*
X182932Y40919D01*
X183930Y40505D01*
X185000Y40365D01*
X186070Y40505D01*
X187068Y40919D01*
X187924Y41576D01*
X188581Y42432D01*
X188995Y43430D01*
X189135Y44500D01*
X188995Y45570D01*
X188581Y46568D01*
X187924Y47424D01*
X187068Y48081D01*
X186070Y48494D01*
X185000Y48635D01*
X183930Y48494D01*
X182932Y48081D01*
X182076Y47424D01*
X181419Y46568D01*
X181196Y46029D01*
X160634D01*
X156081Y50581D01*
X155585Y50913D01*
X155000Y51029D01*
X127990D01*
X127829Y51503D01*
X127924Y51576D01*
X128581Y52432D01*
X128995Y53430D01*
X129135Y54500D01*
X128995Y55570D01*
X128581Y56568D01*
X127924Y57424D01*
X127829Y57497D01*
X127990Y57971D01*
X154367D01*
X158919Y53419D01*
X158919D01*
X158919Y53419D01*
X158919Y53418D01*
Y53419D01*
X159415Y53087D01*
X160000Y52971D01*
X181196D01*
X181419Y52432D01*
X182076Y51576D01*
X182932Y50919D01*
X183930Y50506D01*
X185000Y50365D01*
X186070Y50506D01*
X187068Y50919D01*
X187924Y51576D01*
X188581Y52432D01*
X188995Y53430D01*
X189135Y54500D01*
X188995Y55570D01*
X188581Y56568D01*
X187924Y57424D01*
X187068Y58081D01*
X186070Y58495D01*
X185000Y58635D01*
X183930Y58495D01*
X182932Y58081D01*
X182076Y57424D01*
X181419Y56568D01*
X181196Y56029D01*
X160634D01*
X156081Y60581D01*
X155585Y60913D01*
X155000Y61029D01*
X127990D01*
X127829Y61503D01*
X127924Y61576D01*
X128581Y62432D01*
X128995Y63430D01*
X129135Y64500D01*
X128995Y65570D01*
X128581Y66568D01*
X127924Y67424D01*
X127068Y68081D01*
X126070Y68494D01*
X125000Y68635D01*
X123930Y68494D01*
X122932Y68081D01*
X122076Y67424D01*
X121419Y66568D01*
X121196Y66029D01*
X105633D01*
X101081Y70581D01*
X100585Y70913D01*
X100000Y71029D01*
X82990D01*
X82829Y71503D01*
X82924Y71576D01*
X83581Y72432D01*
X83995Y73430D01*
X84135Y74500D01*
X83995Y75570D01*
X83581Y76568D01*
X82924Y77424D01*
X82829Y77497D01*
X82990Y77971D01*
X99366D01*
X103919Y73419D01*
X104415Y73087D01*
X105000Y72971D01*
X121196D01*
X121419Y72432D01*
X122076Y71576D01*
X122932Y70919D01*
X123930Y70505D01*
X125000Y70365D01*
X126070Y70505D01*
X127068Y70919D01*
X127924Y71576D01*
X128581Y72432D01*
X128995Y73430D01*
X129135Y74500D01*
X128995Y75570D01*
X128581Y76568D01*
X127924Y77424D01*
X127829Y77497D01*
X127990Y77971D01*
X154367D01*
X158919Y73419D01*
X158919D01*
X158919Y73419D01*
X158919Y73418D01*
Y73419D01*
X159415Y73087D01*
X160000Y72971D01*
X181196D01*
X181419Y72432D01*
X182076Y71576D01*
X182932Y70919D01*
X183930Y70505D01*
X185000Y70365D01*
X186070Y70505D01*
X187068Y70919D01*
X187924Y71576D01*
X188581Y72432D01*
X188995Y73430D01*
X189135Y74500D01*
X188995Y75570D01*
X188581Y76568D01*
X187924Y77424D01*
X187068Y78081D01*
X186070Y78495D01*
X185000Y78635D01*
X183930Y78495D01*
X182932Y78081D01*
X182076Y77424D01*
X181419Y76568D01*
X181196Y76029D01*
X160634D01*
X156081Y80581D01*
X155585Y80913D01*
X155000Y81029D01*
X127990D01*
X127829Y81503D01*
X127924Y81576D01*
X128581Y82432D01*
X128995Y83430D01*
X129135Y84500D01*
X128995Y85570D01*
X128581Y86568D01*
X127924Y87424D01*
X127829Y87497D01*
X127990Y87971D01*
X134345D01*
X134443Y87735D01*
X135004Y87004D01*
X135735Y86443D01*
X136586Y86090D01*
X137500Y85970D01*
X138414Y86090D01*
X139265Y86443D01*
X139996Y87004D01*
X140557Y87735D01*
X140655Y87971D01*
X182010D01*
X182171Y87497D01*
X182076Y87424D01*
X181419Y86568D01*
X181006Y85570D01*
X180865Y84500D01*
X181006Y83430D01*
X181419Y82432D01*
X182076Y81576D01*
X182932Y80919D01*
X183930Y80506D01*
X185000Y80365D01*
X186070Y80506D01*
X186609Y80729D01*
X203419Y63919D01*
X203606Y63793D01*
X203649Y63468D01*
X204047Y62507D01*
X204681Y61681D01*
X205507Y61047D01*
X206468Y60649D01*
X207500Y60513D01*
X208532Y60649D01*
X209493Y61047D01*
X210319Y61681D01*
X210953Y62507D01*
X211351Y63468D01*
X211487Y64500D01*
X211351Y65532D01*
X210953Y66493D01*
X210319Y67319D01*
X209493Y67953D01*
X208532Y68351D01*
X207500Y68487D01*
X206468Y68351D01*
X205507Y67953D01*
X204681Y67319D01*
X204364Y67298D01*
X188771Y82891D01*
X188995Y83430D01*
X189135Y84500D01*
X188995Y85570D01*
X188581Y86568D01*
X187924Y87424D01*
X187829Y87497D01*
X187990Y87971D01*
X193367D01*
X197919Y83419D01*
X197919D01*
X197919Y83419D01*
X197919Y83419D01*
Y83419D01*
X198415Y83087D01*
X199000Y82971D01*
X203547D01*
Y80547D01*
X211453D01*
Y88453D01*
X203547D01*
Y86029D01*
X199634D01*
X195081Y90581D01*
X194585Y90913D01*
X194000Y91029D01*
X187990D01*
X187829Y91503D01*
X187924Y91576D01*
X188581Y92432D01*
X188995Y93430D01*
X189135Y94500D01*
X188995Y95570D01*
X188581Y96568D01*
X187924Y97424D01*
X187068Y98081D01*
X186070Y98494D01*
X185000Y98635D01*
X183930Y98494D01*
X182932Y98081D01*
X182076Y97424D01*
X181419Y96568D01*
X181006Y95570D01*
X180865Y94500D01*
X181006Y93430D01*
X181419Y92432D01*
X182076Y91576D01*
X182171Y91503D01*
X182010Y91029D01*
X140655D01*
X140557Y91265D01*
X139996Y91996D01*
X139265Y92557D01*
X138414Y92910D01*
X137500Y93030D01*
X136586Y92910D01*
X135735Y92557D01*
X135004Y91996D01*
X134443Y91265D01*
X134345Y91029D01*
X127990D01*
X127829Y91503D01*
X127924Y91576D01*
X128581Y92432D01*
X128995Y93430D01*
X129135Y94500D01*
X128995Y95570D01*
X128581Y96568D01*
X127924Y97424D01*
X127068Y98081D01*
X126070Y98494D01*
X125000Y98635D01*
X123930Y98494D01*
X122932Y98081D01*
X122076Y97424D01*
X121419Y96568D01*
X121196Y96029D01*
X105633D01*
X101081Y100581D01*
X100585Y100913D01*
X100000Y101029D01*
X82990D01*
X82829Y101503D01*
X82924Y101576D01*
X83581Y102432D01*
X83995Y103430D01*
X84135Y104500D01*
X83995Y105570D01*
X83581Y106568D01*
X82924Y107424D01*
X82829Y107497D01*
X82990Y107971D01*
X99366D01*
X103919Y103419D01*
X103919D01*
X103919Y103419D01*
X103919Y103419D01*
Y103419D01*
X104415Y103087D01*
X105000Y102971D01*
X121196D01*
X121419Y102432D01*
X122076Y101576D01*
X122932Y100919D01*
X123930Y100505D01*
X125000Y100365D01*
X126070Y100505D01*
X127068Y100919D01*
X127924Y101576D01*
X128581Y102432D01*
X128995Y103430D01*
X129135Y104500D01*
X128995Y105570D01*
X128581Y106568D01*
X127924Y107424D01*
X127829Y107497D01*
X127990Y107971D01*
X154367D01*
X158919Y103419D01*
X158919D01*
X158919Y103419D01*
X158919Y103419D01*
Y103419D01*
X159415Y103087D01*
X160000Y102971D01*
X181196D01*
X181419Y102432D01*
X182076Y101576D01*
X182932Y100919D01*
X183930Y100505D01*
X185000Y100365D01*
X186070Y100505D01*
X187068Y100919D01*
X187924Y101576D01*
X188581Y102432D01*
X188995Y103430D01*
X189135Y104500D01*
X188995Y105570D01*
X188581Y106568D01*
X187924Y107424D01*
X187068Y108081D01*
X186070Y108494D01*
X185000Y108635D01*
X183930Y108494D01*
X182932Y108081D01*
X182076Y107424D01*
X181419Y106568D01*
X181196Y106029D01*
X160634D01*
X156081Y110581D01*
X155585Y110913D01*
X155000Y111029D01*
X127990D01*
X127829Y111503D01*
X127924Y111576D01*
X128581Y112432D01*
X128995Y113430D01*
X129135Y114500D01*
X128995Y115570D01*
X128581Y116568D01*
X127924Y117424D01*
X127829Y117497D01*
X127990Y117971D01*
X156367D01*
X160919Y113419D01*
X160919D01*
X160919Y113419D01*
X160919Y113418D01*
Y113419D01*
X161415Y113087D01*
X162000Y112971D01*
X181196D01*
X181419Y112432D01*
X182076Y111576D01*
X182932Y110919D01*
X183930Y110505D01*
X185000Y110365D01*
X186070Y110505D01*
X187068Y110919D01*
X187924Y111576D01*
X188581Y112432D01*
X188995Y113430D01*
X189135Y114500D01*
X188995Y115570D01*
X188581Y116568D01*
X187924Y117424D01*
X187068Y118081D01*
X186070Y118494D01*
X185000Y118635D01*
X183930Y118494D01*
X182932Y118081D01*
X182076Y117424D01*
X181419Y116568D01*
X181196Y116029D01*
X162634D01*
X158081Y120581D01*
X157585Y120913D01*
X157000Y121029D01*
X139504D01*
X139343Y121503D01*
X139996Y122004D01*
X140557Y122735D01*
X140655Y122971D01*
X181196D01*
X181419Y122432D01*
X182076Y121576D01*
X182932Y120919D01*
X183930Y120505D01*
X185000Y120365D01*
X186070Y120505D01*
X187068Y120919D01*
X187924Y121576D01*
X188581Y122432D01*
X188995Y123430D01*
X189135Y124500D01*
X188995Y125570D01*
X188581Y126568D01*
X187924Y127424D01*
X187068Y128081D01*
X186070Y128495D01*
X185000Y128635D01*
X183930Y128495D01*
X182932Y128081D01*
X182076Y127424D01*
X181419Y126568D01*
X181196Y126029D01*
X140655D01*
X140557Y126265D01*
X139996Y126996D01*
X139265Y127557D01*
X138414Y127910D01*
X137500Y128030D01*
X136586Y127910D01*
X135735Y127557D01*
X135004Y126996D01*
X134443Y126265D01*
X134090Y125414D01*
X133970Y124500D01*
X134090Y123586D01*
X134443Y122735D01*
X135004Y122004D01*
X135657Y121503D01*
X135496Y121029D01*
X127990D01*
X127829Y121503D01*
X127924Y121576D01*
X128581Y122432D01*
X128995Y123430D01*
X129135Y124500D01*
X128995Y125570D01*
X128581Y126568D01*
X127924Y127424D01*
X127068Y128081D01*
X126070Y128495D01*
X125000Y128635D01*
X123930Y128495D01*
X122932Y128081D01*
X122076Y127424D01*
X121419Y126568D01*
X121196Y126029D01*
X105633D01*
X101081Y130581D01*
X100585Y130913D01*
X100000Y131029D01*
X84100D01*
Y134995D01*
X101056Y151951D01*
X182451D01*
Y147712D01*
X182076Y147424D01*
X181419Y146568D01*
X181006Y145570D01*
X180865Y144500D01*
X181006Y143430D01*
X181419Y142432D01*
X182076Y141576D01*
X182932Y140919D01*
X183930Y140506D01*
X185000Y140365D01*
X186070Y140506D01*
X187068Y140919D01*
X187924Y141576D01*
X188212Y141951D01*
X191000D01*
Y140500D01*
X199000D01*
Y148500D01*
X191000D01*
Y147049D01*
X188212D01*
X187924Y147424D01*
X187549Y147712D01*
Y151951D01*
X220951D01*
Y146667D01*
X220503Y146446D01*
X220493Y146453D01*
X219532Y146851D01*
X218500Y146987D01*
X217468Y146851D01*
X216507Y146453D01*
X215681Y145819D01*
X215047Y144993D01*
X214649Y144032D01*
X214513Y143000D01*
X214649Y141968D01*
X215047Y141007D01*
X215681Y140181D01*
X216507Y139547D01*
X217468Y139149D01*
X218500Y139013D01*
X219532Y139149D01*
X220493Y139547D01*
X221319Y140181D01*
X221526Y140451D01*
X224547D01*
Y139047D01*
X232453D01*
Y146953D01*
X226049D01*
Y151951D01*
X247961D01*
Y98345D01*
X238033Y88417D01*
X237500Y88487D01*
X236468Y88351D01*
X235507Y87953D01*
X234681Y87319D01*
X234047Y86493D01*
X233649Y85532D01*
X233513Y84500D01*
X233649Y83468D01*
X234047Y82507D01*
X234681Y81681D01*
X235507Y81047D01*
X236468Y80649D01*
X237500Y80513D01*
X238532Y80649D01*
X239493Y81047D01*
X240319Y81681D01*
X240953Y82507D01*
X241351Y83468D01*
X241487Y84500D01*
X241351Y85532D01*
X241224Y85840D01*
X251442Y96058D01*
X251884Y96720D01*
X252039Y97500D01*
Y151951D01*
X298944D01*
X315900Y134995D01*
Y130400D01*
X324100D01*
Y138600D01*
X319505D01*
X301802Y156302D01*
X300975Y156855D01*
X300000Y157049D01*
D02*
G37*
G36*
X260000Y138635D02*
X258930Y138495D01*
X257932Y138081D01*
X257076Y137424D01*
X256419Y136568D01*
X256006Y135570D01*
X255865Y134500D01*
X256006Y133430D01*
X256419Y132432D01*
X257076Y131576D01*
X257932Y130919D01*
X258930Y130506D01*
X260000Y130365D01*
X261070Y130506D01*
X262068Y130919D01*
X262924Y131576D01*
X263581Y132432D01*
X263995Y133430D01*
X264135Y134500D01*
X263995Y135570D01*
X263581Y136568D01*
X262924Y137424D01*
X262068Y138081D01*
X261070Y138495D01*
X260000Y138635D01*
D02*
G37*
G36*
X185000D02*
X183930Y138495D01*
X182932Y138081D01*
X182076Y137424D01*
X181419Y136568D01*
X181006Y135570D01*
X180865Y134500D01*
X181006Y133430D01*
X181419Y132432D01*
X182076Y131576D01*
X182932Y130919D01*
X183930Y130506D01*
X185000Y130365D01*
X186070Y130506D01*
X187068Y130919D01*
X187924Y131576D01*
X188581Y132432D01*
X188995Y133430D01*
X189135Y134500D01*
X188995Y135570D01*
X188581Y136568D01*
X187924Y137424D01*
X187068Y138081D01*
X186070Y138495D01*
X185000Y138635D01*
D02*
G37*
G36*
X129100Y148600D02*
X120900D01*
Y140400D01*
X129100D01*
Y148600D01*
D02*
G37*
G36*
X199000Y135000D02*
X195500D01*
Y131500D01*
X199000D01*
Y135000D01*
D02*
G37*
G36*
X194500D02*
X191000D01*
Y131500D01*
X194500D01*
Y135000D01*
D02*
G37*
G36*
X212000Y130500D02*
X208500D01*
Y127000D01*
X212000D01*
Y130500D01*
D02*
G37*
G36*
X207500D02*
X204000D01*
Y127000D01*
X207500D01*
Y130500D01*
D02*
G37*
G36*
X199000D02*
X195500D01*
Y127000D01*
X199000D01*
Y130500D01*
D02*
G37*
G36*
X125000Y138635D02*
X123930Y138495D01*
X122932Y138081D01*
X122076Y137424D01*
X121419Y136568D01*
X121005Y135570D01*
X120865Y134500D01*
X121005Y133430D01*
X121419Y132432D01*
X122076Y131576D01*
X122932Y130919D01*
X123930Y130506D01*
X125000Y130365D01*
X126070Y130506D01*
X127068Y130919D01*
X127924Y131576D01*
X128581Y132432D01*
X128995Y133430D01*
X129135Y134500D01*
X128995Y135570D01*
X128581Y136568D01*
X127924Y137424D01*
X127068Y138081D01*
X126070Y138495D01*
X125000Y138635D01*
D02*
G37*
G36*
X243000Y130500D02*
X239500D01*
Y127000D01*
X243000D01*
Y130500D01*
D02*
G37*
G36*
X238500D02*
X235000D01*
Y127000D01*
X238500D01*
Y130500D01*
D02*
G37*
G36*
X260000Y98635D02*
X258930Y98494D01*
X257932Y98081D01*
X257076Y97424D01*
X256419Y96568D01*
X256006Y95570D01*
X255865Y94500D01*
X256006Y93430D01*
X256419Y92432D01*
X257076Y91576D01*
X257932Y90919D01*
X258930Y90505D01*
X260000Y90365D01*
X261070Y90505D01*
X262068Y90919D01*
X262924Y91576D01*
X263581Y92432D01*
X263995Y93430D01*
X264135Y94500D01*
X263995Y95570D01*
X263581Y96568D01*
X262924Y97424D01*
X262068Y98081D01*
X261070Y98494D01*
X260000Y98635D01*
D02*
G37*
G36*
X320000D02*
X318930Y98494D01*
X317932Y98081D01*
X317076Y97424D01*
X316419Y96568D01*
X316005Y95570D01*
X315865Y94500D01*
X316005Y93430D01*
X316419Y92432D01*
X317076Y91576D01*
X317932Y90919D01*
X318930Y90505D01*
X320000Y90365D01*
X321070Y90505D01*
X322068Y90919D01*
X322924Y91576D01*
X323581Y92432D01*
X323994Y93430D01*
X324135Y94500D01*
X323994Y95570D01*
X323581Y96568D01*
X322924Y97424D01*
X322068Y98081D01*
X321070Y98494D01*
X320000Y98635D01*
D02*
G37*
G36*
X237000Y78421D02*
X236468Y78351D01*
X235507Y77953D01*
X234681Y77319D01*
X234047Y76493D01*
X233649Y75532D01*
X233579Y75000D01*
X237000D01*
Y78421D01*
D02*
G37*
G36*
X320000Y88635D02*
X318930Y88494D01*
X317932Y88081D01*
X317076Y87424D01*
X316419Y86568D01*
X316005Y85570D01*
X315865Y84500D01*
X316005Y83430D01*
X316419Y82432D01*
X317076Y81576D01*
X317932Y80919D01*
X318930Y80506D01*
X320000Y80365D01*
X321070Y80506D01*
X322068Y80919D01*
X322924Y81576D01*
X323581Y82432D01*
X323994Y83430D01*
X324135Y84500D01*
X323994Y85570D01*
X323581Y86568D01*
X322924Y87424D01*
X322068Y88081D01*
X321070Y88494D01*
X320000Y88635D01*
D02*
G37*
G36*
X260000D02*
X258930Y88494D01*
X257932Y88081D01*
X257076Y87424D01*
X256419Y86568D01*
X256006Y85570D01*
X255865Y84500D01*
X256006Y83430D01*
X256419Y82432D01*
X257076Y81576D01*
X257932Y80919D01*
X258930Y80506D01*
X260000Y80365D01*
X261070Y80506D01*
X262068Y80919D01*
X262924Y81576D01*
X263581Y82432D01*
X263995Y83430D01*
X264135Y84500D01*
X263995Y85570D01*
X263581Y86568D01*
X262924Y87424D01*
X262068Y88081D01*
X261070Y88494D01*
X260000Y88635D01*
D02*
G37*
G36*
X238000Y78421D02*
Y75000D01*
X241421D01*
X241351Y75532D01*
X240953Y76493D01*
X240319Y77319D01*
X239493Y77953D01*
X238532Y78351D01*
X238000Y78421D01*
D02*
G37*
G36*
X237000Y74000D02*
X233579D01*
X233649Y73468D01*
X234047Y72507D01*
X234681Y71681D01*
X235507Y71047D01*
X236468Y70649D01*
X237000Y70579D01*
Y74000D01*
D02*
G37*
G36*
X207500Y78487D02*
X206468Y78351D01*
X205507Y77953D01*
X204681Y77319D01*
X204047Y76493D01*
X203649Y75532D01*
X203513Y74500D01*
X203649Y73468D01*
X204047Y72507D01*
X204681Y71681D01*
X205507Y71047D01*
X206468Y70649D01*
X207500Y70513D01*
X208532Y70649D01*
X209493Y71047D01*
X210319Y71681D01*
X210953Y72507D01*
X211351Y73468D01*
X211487Y74500D01*
X211351Y75532D01*
X210953Y76493D01*
X210319Y77319D01*
X209493Y77953D01*
X208532Y78351D01*
X207500Y78487D01*
D02*
G37*
G36*
X320000Y78635D02*
X318930Y78495D01*
X317932Y78081D01*
X317076Y77424D01*
X316419Y76568D01*
X316005Y75570D01*
X315865Y74500D01*
X316005Y73430D01*
X316419Y72432D01*
X317076Y71576D01*
X317932Y70919D01*
X318930Y70505D01*
X320000Y70365D01*
X321070Y70505D01*
X322068Y70919D01*
X322924Y71576D01*
X323581Y72432D01*
X323994Y73430D01*
X324135Y74500D01*
X323994Y75570D01*
X323581Y76568D01*
X322924Y77424D01*
X322068Y78081D01*
X321070Y78495D01*
X320000Y78635D01*
D02*
G37*
G36*
X241421Y74000D02*
X238000D01*
Y70579D01*
X238532Y70649D01*
X239493Y71047D01*
X240319Y71681D01*
X240953Y72507D01*
X241351Y73468D01*
X241421Y74000D01*
D02*
G37*
%LPD*%
G36*
X101310Y56027D02*
X100993Y55641D01*
X100585Y55913D01*
X100000Y56029D01*
X83804D01*
X83581Y56568D01*
X82924Y57424D01*
X82829Y57497D01*
X82990Y57971D01*
X99366D01*
X101310Y56027D01*
D02*
G37*
G36*
X104415Y58087D02*
X105000Y57971D01*
X122010D01*
X122171Y57497D01*
X122076Y57424D01*
X121419Y56568D01*
X121196Y56029D01*
X105633D01*
X103690Y57973D01*
X104007Y58359D01*
X104415Y58087D01*
D02*
G37*
G36*
X101310Y126027D02*
X100993Y125641D01*
X100585Y125913D01*
X100000Y126029D01*
X83804D01*
X83581Y126568D01*
X82924Y127424D01*
X82829Y127497D01*
X82990Y127971D01*
X99366D01*
X101310Y126027D01*
D02*
G37*
G36*
Y86027D02*
X100993Y85641D01*
X100585Y85913D01*
X100000Y86029D01*
X83804D01*
X83581Y86568D01*
X82924Y87424D01*
X82829Y87497D01*
X82990Y87971D01*
X99366D01*
X101310Y86027D01*
D02*
G37*
G36*
X105000Y27971D02*
X122010D01*
X122171Y27497D01*
X122076Y27424D01*
X121419Y26568D01*
X121196Y26029D01*
X106133D01*
X104601Y27562D01*
X104836Y28003D01*
X105000Y27971D01*
D02*
G37*
G36*
X104415Y83087D02*
X105000Y82971D01*
X121196D01*
X121419Y82432D01*
X122076Y81576D01*
X122171Y81503D01*
X122010Y81029D01*
X105633D01*
X103690Y82973D01*
X104007Y83359D01*
X104415Y83087D01*
D02*
G37*
G36*
Y78087D02*
X105000Y77971D01*
X122010D01*
X122171Y77497D01*
X122076Y77424D01*
X121419Y76568D01*
X121196Y76029D01*
X105633D01*
X103690Y77973D01*
X104007Y78359D01*
X104415Y78087D01*
D02*
G37*
G36*
X104419Y23419D02*
X104419D01*
X104419Y23418D01*
X104419Y23418D01*
Y23418D01*
X104915Y23087D01*
X105500Y22971D01*
X121196D01*
X121419Y22432D01*
X122076Y21576D01*
X122823Y21003D01*
X122662Y20529D01*
X106133D01*
X101081Y25581D01*
X100585Y25913D01*
X100000Y26029D01*
X83804D01*
X83581Y26568D01*
X82924Y27424D01*
X82829Y27497D01*
X82990Y27971D01*
X99866D01*
X104419Y23419D01*
D02*
G37*
G36*
X104415Y63087D02*
X105000Y62971D01*
X121196D01*
X121419Y62432D01*
X122076Y61576D01*
X122171Y61503D01*
X122010Y61029D01*
X105633D01*
X103690Y62973D01*
X104007Y63359D01*
X104415Y63087D01*
D02*
G37*
G36*
X101310Y81027D02*
X100993Y80641D01*
X100585Y80913D01*
X100000Y81029D01*
X82990D01*
X82829Y81503D01*
X82924Y81576D01*
X83581Y82432D01*
X83804Y82971D01*
X99366D01*
X101310Y81027D01*
D02*
G37*
G36*
Y66027D02*
X100993Y65641D01*
X100585Y65913D01*
X100000Y66029D01*
X83804D01*
X83581Y66568D01*
X82924Y67424D01*
X82829Y67497D01*
X82990Y67971D01*
X99366D01*
X101310Y66027D01*
D02*
G37*
G36*
Y61027D02*
X100993Y60641D01*
X100585Y60913D01*
X100000Y61029D01*
X82990D01*
X82829Y61503D01*
X82924Y61576D01*
X83581Y62432D01*
X83804Y62971D01*
X99366D01*
X101310Y61027D01*
D02*
G37*
G36*
X104415Y123087D02*
X105000Y122971D01*
X121196D01*
X121419Y122432D01*
X122076Y121576D01*
X122171Y121503D01*
X122010Y121029D01*
X105633D01*
X103690Y122973D01*
X104007Y123359D01*
X104415Y123087D01*
D02*
G37*
G36*
X101310Y41027D02*
X100993Y40641D01*
X100585Y40913D01*
X100000Y41029D01*
X82990D01*
X82829Y41503D01*
X82924Y41576D01*
X83581Y42432D01*
X83804Y42971D01*
X99366D01*
X101310Y41027D01*
D02*
G37*
G36*
X104415Y43087D02*
X105000Y42971D01*
X121196D01*
X121419Y42432D01*
X122076Y41576D01*
X122171Y41503D01*
X122010Y41029D01*
X105633D01*
X103690Y42973D01*
X104007Y43359D01*
X104415Y43087D01*
D02*
G37*
G36*
X101310Y91027D02*
X100993Y90641D01*
X100585Y90913D01*
X100000Y91029D01*
X82990D01*
X82829Y91503D01*
X82924Y91576D01*
X83581Y92432D01*
X83804Y92971D01*
X99366D01*
X101310Y91027D01*
D02*
G37*
G36*
X104415Y113087D02*
X105000Y112971D01*
X121196D01*
X121419Y112432D01*
X122076Y111576D01*
X122171Y111503D01*
X122010Y111029D01*
X105633D01*
X103690Y112973D01*
X104007Y113359D01*
X104415Y113087D01*
D02*
G37*
G36*
X101310Y111027D02*
X100993Y110641D01*
X100585Y110913D01*
X100000Y111029D01*
X82990D01*
X82829Y111503D01*
X82924Y111576D01*
X83581Y112432D01*
X83804Y112971D01*
X99366D01*
X101310Y111027D01*
D02*
G37*
G36*
Y96027D02*
X100993Y95641D01*
X100585Y95913D01*
X100000Y96029D01*
X83804D01*
X83581Y96568D01*
X82924Y97424D01*
X82829Y97497D01*
X82990Y97971D01*
X99366D01*
X101310Y96027D01*
D02*
G37*
G36*
Y46027D02*
X100993Y45641D01*
X100585Y45913D01*
X100000Y46029D01*
X83804D01*
X83581Y46568D01*
X82924Y47424D01*
X82829Y47497D01*
X82990Y47971D01*
X99366D01*
X101310Y46027D01*
D02*
G37*
G36*
X104415Y48087D02*
X105000Y47971D01*
X122010D01*
X122171Y47497D01*
X122076Y47424D01*
X121419Y46568D01*
X121196Y46029D01*
X105633D01*
X103690Y47973D01*
X104007Y48359D01*
X104415Y48087D01*
D02*
G37*
G36*
Y108087D02*
X105000Y107971D01*
X122010D01*
X122171Y107497D01*
X122076Y107424D01*
X121419Y106568D01*
X121196Y106029D01*
X105633D01*
X103690Y107973D01*
X104007Y108359D01*
X104415Y108087D01*
D02*
G37*
G36*
Y93087D02*
X105000Y92971D01*
X121196D01*
X121419Y92432D01*
X122076Y91576D01*
X122171Y91503D01*
X122010Y91029D01*
X105633D01*
X103690Y92973D01*
X104007Y93359D01*
X104415Y93087D01*
D02*
G37*
G36*
X100899Y31438D02*
X100664Y30997D01*
X100500Y31029D01*
X82990D01*
X82829Y31503D01*
X82924Y31576D01*
X83581Y32432D01*
X83804Y32971D01*
X99366D01*
X100899Y31438D01*
D02*
G37*
G36*
X104415Y33087D02*
X105000Y32971D01*
X121196D01*
X121419Y32432D01*
X122076Y31576D01*
X122171Y31503D01*
X122010Y31029D01*
X105633D01*
X103690Y32973D01*
X104007Y33359D01*
X104415Y33087D01*
D02*
G37*
G36*
X101310Y51027D02*
X100993Y50641D01*
X100585Y50913D01*
X100000Y51029D01*
X82990D01*
X82829Y51503D01*
X82924Y51576D01*
X83581Y52432D01*
X83804Y52971D01*
X99366D01*
X101310Y51027D01*
D02*
G37*
G36*
Y121027D02*
X100993Y120641D01*
X100585Y120913D01*
X100000Y121029D01*
X82990D01*
X82829Y121503D01*
X82924Y121576D01*
X83581Y122432D01*
X83804Y122971D01*
X99366D01*
X101310Y121027D01*
D02*
G37*
G36*
X104415Y53087D02*
X105000Y52971D01*
X121196D01*
X121419Y52432D01*
X122076Y51576D01*
X122171Y51503D01*
X122010Y51029D01*
X105633D01*
X103690Y52973D01*
X104007Y53359D01*
X104415Y53087D01*
D02*
G37*
G36*
Y38087D02*
X105000Y37971D01*
X122010D01*
X122171Y37497D01*
X122076Y37424D01*
X121419Y36568D01*
X121196Y36029D01*
X105633D01*
X103690Y37973D01*
X104007Y38359D01*
X104415Y38087D01*
D02*
G37*
G36*
Y88087D02*
X105000Y87971D01*
X122010D01*
X122171Y87497D01*
X122076Y87424D01*
X121419Y86568D01*
X121196Y86029D01*
X105633D01*
X103690Y87973D01*
X104007Y88359D01*
X104415Y88087D01*
D02*
G37*
G36*
X101310Y36027D02*
X100993Y35641D01*
X100585Y35913D01*
X100000Y36029D01*
X83804D01*
X83581Y36568D01*
X82924Y37424D01*
X82829Y37497D01*
X82990Y37971D01*
X99366D01*
X101310Y36027D01*
D02*
G37*
G36*
X104415Y118087D02*
X105000Y117971D01*
X122010D01*
X122171Y117497D01*
X122076Y117424D01*
X121419Y116568D01*
X121196Y116029D01*
X105633D01*
X103690Y117973D01*
X104007Y118359D01*
X104415Y118087D01*
D02*
G37*
G36*
X101310Y116027D02*
X100993Y115641D01*
X100585Y115913D01*
X100000Y116029D01*
X83804D01*
X83581Y116568D01*
X82924Y117424D01*
X82829Y117497D01*
X82990Y117971D01*
X99366D01*
X101310Y116027D01*
D02*
G37*
D10*
X160000Y24500D02*
X185000D01*
X160000Y34500D02*
X185000D01*
X160000Y44500D02*
X185000D01*
X160000Y54500D02*
X185000D01*
X80000Y34500D02*
X100000D01*
X105000Y29500D01*
X154500D01*
X80000Y44500D02*
X100000D01*
X105000Y39500D01*
X155000D01*
X80000Y54500D02*
X100000D01*
X105000Y49500D01*
X154500D01*
X80000Y64500D02*
X100000D01*
X105000Y59500D01*
X155000D01*
X80000Y24500D02*
X100000D01*
X105500Y19000D01*
X155000D01*
X35000Y29500D02*
X100500D01*
X105500Y24500D01*
X125000D01*
X35000Y39500D02*
X100000D01*
X105000Y34500D01*
X125000D01*
X35000Y49500D02*
X100000D01*
X105000Y44500D01*
X125000D01*
X159500Y14500D02*
X185000D01*
X25500Y29500D02*
X35000D01*
X23505Y31495D02*
X25500Y29500D01*
X25000Y39500D02*
X35000D01*
X23253Y41247D02*
X25000Y39500D01*
X20000Y44500D02*
X23253Y41247D01*
X25000Y49500D02*
X35000D01*
X24600Y49900D02*
X25000Y49500D01*
X30000D01*
X20000Y54500D02*
X25000Y49500D01*
X154500Y29500D02*
X155000D01*
X160000Y24500D01*
X154500Y49500D02*
X155000D01*
X160000Y44500D01*
X105000Y79500D02*
X155000D01*
X160000Y74500D01*
X185000D01*
X80000Y114500D02*
X97500D01*
X155000Y109500D02*
X160000Y104500D01*
X185000D01*
X80000Y124500D02*
X97500D01*
X105000Y119500D02*
X157000D01*
X162000Y114500D01*
X185000D01*
X20000Y64500D02*
X25000Y59500D01*
X100000D01*
X105000Y54500D01*
X125000D01*
X20000Y74500D02*
X25000Y69500D01*
X100000D01*
X105000Y64500D01*
X125000D01*
X20000Y84500D02*
X25000Y79500D01*
X97500D01*
X105000Y74500D02*
X125000D01*
X20000Y94500D02*
X25000Y89500D01*
X97500D01*
X105000Y84500D02*
X125000D01*
X20000Y104500D02*
X25000Y99500D01*
X97500D01*
X105000Y94500D02*
X125000D01*
X20000Y114500D02*
X25000Y109500D01*
X97000D01*
X20000Y124500D02*
X25000Y119500D01*
X97500D01*
X105000Y114500D02*
X125000D01*
X20000Y134500D02*
X25000Y129500D01*
X97500D01*
X105000Y124500D02*
X125000D01*
X81500Y84500D02*
X97500D01*
X97000Y109500D02*
X97500D01*
X155000Y19000D02*
X159500Y14500D01*
X155000Y39500D02*
X160000Y34500D01*
X155000Y59500D02*
X160000Y54500D01*
X97500Y79500D02*
X100000D01*
X97500Y84500D02*
X100000D01*
Y79500D02*
X105000Y74500D01*
X100000Y84500D02*
X105000Y79500D01*
X97500Y89500D02*
X100000D01*
X105000Y84500D01*
X97500Y99500D02*
X100000D01*
X105000Y94500D01*
X97500Y109500D02*
X100000D01*
X105000Y104500D02*
X125000D01*
X100000Y109500D02*
X105000Y104500D01*
X97500Y114500D02*
X100000D01*
X105000Y109500D01*
X155000D01*
X97500Y119500D02*
X100000D01*
X97500Y124500D02*
X100000D01*
Y119500D02*
X105000Y114500D01*
X100000Y124500D02*
X105000Y119500D01*
X97500Y129500D02*
X100000D01*
X105000Y124500D01*
X185000Y84500D02*
X204500Y65000D01*
X208000D01*
X80000Y94500D02*
X100000D01*
X105000Y89500D01*
X194000D01*
X199000Y84500D01*
X207500D01*
X137500Y124500D02*
X185000D01*
X228500Y113000D02*
X239000D01*
X209000D02*
X218500D01*
D11*
D03*
X228500D02*
D03*
X218500Y143000D02*
D03*
X237500Y24500D02*
D03*
Y34500D02*
D03*
Y44500D02*
D03*
Y54500D02*
D03*
Y64500D02*
D03*
Y74500D02*
D03*
Y84500D02*
D03*
X207500Y24500D02*
D03*
Y34500D02*
D03*
Y44500D02*
D03*
Y54500D02*
D03*
Y64500D02*
D03*
Y74500D02*
D03*
D12*
X228500Y143000D02*
D03*
D13*
X207500Y84500D02*
D03*
D14*
X320000Y134500D02*
D03*
X80000D02*
D03*
X125000Y144500D02*
D03*
D15*
X320000Y124500D02*
D03*
Y114500D02*
D03*
Y104500D02*
D03*
Y94500D02*
D03*
Y84500D02*
D03*
Y74500D02*
D03*
Y64500D02*
D03*
Y54500D02*
D03*
Y44500D02*
D03*
Y34500D02*
D03*
Y24500D02*
D03*
X260000D02*
D03*
Y34500D02*
D03*
Y44500D02*
D03*
Y54500D02*
D03*
Y64500D02*
D03*
Y74500D02*
D03*
Y84500D02*
D03*
Y94500D02*
D03*
Y104500D02*
D03*
Y114500D02*
D03*
Y124500D02*
D03*
Y134500D02*
D03*
X80000Y124500D02*
D03*
Y114500D02*
D03*
Y104500D02*
D03*
Y94500D02*
D03*
Y84500D02*
D03*
Y74500D02*
D03*
Y64500D02*
D03*
Y54500D02*
D03*
Y44500D02*
D03*
Y34500D02*
D03*
Y24500D02*
D03*
X20000D02*
D03*
Y34500D02*
D03*
Y44500D02*
D03*
Y54500D02*
D03*
Y64500D02*
D03*
Y74500D02*
D03*
Y84500D02*
D03*
Y94500D02*
D03*
Y104500D02*
D03*
Y114500D02*
D03*
Y124500D02*
D03*
Y134500D02*
D03*
X125000D02*
D03*
Y124500D02*
D03*
Y114500D02*
D03*
Y104500D02*
D03*
Y94500D02*
D03*
Y84500D02*
D03*
Y74500D02*
D03*
Y64500D02*
D03*
Y54500D02*
D03*
Y44500D02*
D03*
Y34500D02*
D03*
Y24500D02*
D03*
Y14500D02*
D03*
X185000D02*
D03*
Y24500D02*
D03*
Y34500D02*
D03*
Y44500D02*
D03*
Y54500D02*
D03*
Y64500D02*
D03*
Y74500D02*
D03*
Y84500D02*
D03*
Y94500D02*
D03*
Y104500D02*
D03*
Y114500D02*
D03*
Y124500D02*
D03*
Y134500D02*
D03*
Y144500D02*
D03*
D16*
X137500Y124500D02*
D03*
Y89500D02*
D03*
D17*
X195000Y144500D02*
D03*
Y131000D02*
D03*
X208000Y113000D02*
D03*
Y126500D02*
D03*
X239000Y113000D02*
D03*
Y126500D02*
D03*
D18*
X300000Y154500D02*
X320000Y134500D01*
X185000Y144500D02*
X195000D01*
X80000Y134500D02*
X100000Y154500D01*
X185000D01*
Y144500D02*
Y154500D01*
X218500Y143000D02*
X223500D01*
X228500D01*
X223500D02*
Y154500D01*
X185000D02*
X223500D01*
X300000D01*
D19*
X237500Y85000D02*
X250000Y97500D01*
Y154000D01*
M02*
