G04 Layer_Color=16711935*
%FSLAX25Y25*%
%MOIN*%
G70*
G01*
G75*
%ADD24C,0.06706*%
%ADD25R,0.06706X0.06706*%
%ADD26R,0.06706X0.06706*%
%ADD27R,0.07000X0.07000*%
%ADD28C,0.07000*%
%ADD29C,0.05800*%
%ADD30R,0.06800X0.06800*%
D24*
X218500Y113000D02*
D03*
X228500D02*
D03*
X218500Y143000D02*
D03*
X237500Y24500D02*
D03*
Y34500D02*
D03*
Y44500D02*
D03*
Y54500D02*
D03*
Y64500D02*
D03*
Y74500D02*
D03*
Y84500D02*
D03*
X207500Y24500D02*
D03*
Y34500D02*
D03*
Y44500D02*
D03*
Y54500D02*
D03*
Y64500D02*
D03*
Y74500D02*
D03*
D25*
X228500Y143000D02*
D03*
D26*
X207500Y84500D02*
D03*
D27*
X320000Y134500D02*
D03*
X80000D02*
D03*
X125000Y144500D02*
D03*
D28*
X320000Y124500D02*
D03*
Y114500D02*
D03*
Y104500D02*
D03*
Y94500D02*
D03*
Y84500D02*
D03*
Y74500D02*
D03*
Y64500D02*
D03*
Y54500D02*
D03*
Y44500D02*
D03*
Y34500D02*
D03*
Y24500D02*
D03*
X260000D02*
D03*
Y34500D02*
D03*
Y44500D02*
D03*
Y54500D02*
D03*
Y64500D02*
D03*
Y74500D02*
D03*
Y84500D02*
D03*
Y94500D02*
D03*
Y104500D02*
D03*
Y114500D02*
D03*
Y124500D02*
D03*
Y134500D02*
D03*
X80000Y124500D02*
D03*
Y114500D02*
D03*
Y104500D02*
D03*
Y94500D02*
D03*
Y84500D02*
D03*
Y74500D02*
D03*
Y64500D02*
D03*
Y54500D02*
D03*
Y44500D02*
D03*
Y34500D02*
D03*
Y24500D02*
D03*
X20000D02*
D03*
Y34500D02*
D03*
Y44500D02*
D03*
Y54500D02*
D03*
Y64500D02*
D03*
Y74500D02*
D03*
Y84500D02*
D03*
Y94500D02*
D03*
Y104500D02*
D03*
Y114500D02*
D03*
Y124500D02*
D03*
Y134500D02*
D03*
X125000D02*
D03*
Y124500D02*
D03*
Y114500D02*
D03*
Y104500D02*
D03*
Y94500D02*
D03*
Y84500D02*
D03*
Y74500D02*
D03*
Y64500D02*
D03*
Y54500D02*
D03*
Y44500D02*
D03*
Y34500D02*
D03*
Y24500D02*
D03*
Y14500D02*
D03*
X185000D02*
D03*
Y24500D02*
D03*
Y34500D02*
D03*
Y44500D02*
D03*
Y54500D02*
D03*
Y64500D02*
D03*
Y74500D02*
D03*
Y84500D02*
D03*
Y94500D02*
D03*
Y104500D02*
D03*
Y114500D02*
D03*
Y124500D02*
D03*
Y134500D02*
D03*
Y144500D02*
D03*
D29*
X137500Y124500D02*
D03*
Y89500D02*
D03*
D30*
X195000Y144500D02*
D03*
Y131000D02*
D03*
X208000Y113000D02*
D03*
Y126500D02*
D03*
X239000Y113000D02*
D03*
Y126500D02*
D03*
M02*
