M48
;Layer_Color=9474304
;FILE_FORMAT=2:3
INCH,TZ
;TYPE=PLATED
T1F00S00C0.028
T2F00S00C0.032
T3F00S00C0.035
%
T01
X1375Y895
Y1245
T02
X2600Y245
Y345
Y445
Y545
Y645
Y745
Y845
Y945
X3200
Y845
Y745
Y645
Y545
Y445
Y345
Y245
X1850
Y145
Y345
Y445
Y545
Y645
Y745
Y845
Y945
X1250
Y845
Y745
Y645
Y545
Y445
Y345
Y245
Y145
X800Y245
Y345
Y445
Y545
Y645
Y745
Y845
Y945
X200
Y845
Y745
Y645
Y545
Y445
Y345
Y245
Y1045
Y1145
Y1245
Y1345
X800
Y1245
Y1145
Y1045
X1250
Y1145
Y1245
Y1345
Y1445
X1850
Y1345
Y1245
Y1145
Y1045
X2600
Y1145
Y1245
Y1345
X3200
Y1245
Y1145
Y1045
T03
X2375Y245
Y345
Y445
Y545
Y645
Y745
Y845
X2075
Y745
Y645
Y545
Y445
Y345
Y245
X2185Y1130
Y1430
X2285
Y1130
M30
